# Blender 4.0.2
# www.blender.org
mtllib exterior_wall.mtl
o Plane
v -0.657382 1.950000 0.906308
v -0.657382 -0.050000 0.906308
v -1.502618 1.950000 -0.906308
v -1.502618 -0.050000 -0.906308
v 0.142123 1.401450 0.292632
vn 0.9063 -0.0000 -0.4226
vt 0.000000 0.000000
vt 1.000000 0.000000
vt 1.000000 1.000000
vt 0.000000 1.000000
s 0
usemtl wall
f 1/1/1 2/2/1 4/3/1 3/4/1
l 1 5
o Plane.001
v 4.542631 2.069465 3.003762
v 4.618631 -0.012838 3.012511
v -0.680505 1.950000 0.889269
v -0.680505 -0.050000 0.889269
v 1.344023 1.401450 0.679708
vn 0.3735 0.0050 -0.9276
vt 0.000000 0.000000
vt 1.000000 0.000000
vt 1.000000 1.000000
vt 0.000000 1.000000
s 0
usemtl wall
f 6/5/2 7/6/2 9/7/2 8/8/2
l 6 10
o Plane.002
v 1.121963 2.051981 -5.868319
v 1.138500 -0.030322 -5.943012
v -1.519691 1.932516 -0.890980
v -1.519691 -0.067484 -0.890980
v -1.519437 1.383966 -2.926325
vn -0.8842 0.0050 -0.4671
vt 0.000000 0.000000
vt 1.000000 0.000000
vt 1.000000 1.000000
vt 0.000000 1.000000
s 0
usemtl wall
f 11/9/3 12/10/3 14/11/3 13/12/3
l 11 15
